<?xml version="1.0" encoding="utf-8"?><svg xmlns="http://www.w3.org/2000/svg" xmlns:xlink="http://www.w3.org/1999/xlink"><symbol viewBox="0 0 25 20" id="burger" xmlns="http://www.w3.org/2000/svg"><defs><path id="aa" d="M275 26v-2h25v2zm0 18v-2h25v2zm0-9v-2h25v2z"/></defs><use xlink:href="#aa" transform="translate(-275 -24)"/></symbol><symbol viewBox="0 0 21 22" id="close" xmlns="http://www.w3.org/2000/svg"><defs><path id="ba" d="M277.002 24.921l1.414-1.414 9.069 9.069 9.069-9.069 1.414 1.414-9.069 9.069 9.069 9.069-1.414 1.414-9.069-9.069-9.069 9.069-1.414-1.414 9.069-9.069z"/></defs><use xlink:href="#ba" transform="translate(-277 -23)"/></symbol><symbol viewBox="0 0 23 23" id="phone" xmlns="http://www.w3.org/2000/svg"><defs><path id="ca" d="M209.436 26.892c.336-.5.707-.76 1.221-1.013.086-.042.391-.182.409-.19 2.813-1.481 4.743-1.922 6.077-1.58.26.067.489.163.685.28l.403.242.265.388a56.646 56.646 0 0 1 1.548 2.405c.952 1.575 1.35 2.372 1.35 3.27 0 1.102-.508 1.788-1.532 2.793a15.48 15.48 0 0 1-.426.402c.8.965 1.818 1.987 2.672 2.696.16-.175.32-.34.475-.495 1.035-1.025 1.77-1.536 2.918-1.432.829.041 1.616.434 3.06 1.29l.385.233a54.09 54.09 0 0 1 1.976 1.267l.467.315.252.505c.09.18.162.386.21.615.269 1.255-.125 3.147-1.442 5.999l-.072.143c-.903 1.625-2.02 2.32-3.697 1.81-8.361-1.869-15.888-9.457-17.536-17.763-.202-.74-.12-1.509.332-2.18z"/><clipPath id="cb"><use xlink:href="#ca"/></clipPath></defs><use fill-opacity="0" stroke-miterlimit="50" stroke-width="4" clip-path="url(#cb)" xlink:href="#ca"/></symbol><symbol viewBox="0 0 24 24" id="phone-white" xmlns="http://www.w3.org/2000/svg"><path d="M6.176 1.322L9.02 0l4.041 7.89-2.724 1.341c-.538 1.259 2.159 6.289 3.297 6.372.09-.058 2.671-1.328 2.671-1.328l4.11 7.932s-2.764 1.354-2.854 1.396C9.699 27.194-1.542 5.345 6.176 1.322zm1.929 1.274L7.082 3.1c-5.294 2.762 4.177 21.185 9.648 18.686l.971-.474-2.271-4.383-1.026.5c-3.163 1.547-8.262-8.219-5.055-9.938l1.007-.497-2.251-4.398z"/></symbol></svg>